<svg width="89" height="89" viewBox="0 0 89 89" fill="none" xmlns="http://www.w3.org/2000/svg">
<path d="M14.8333 11.1249H37.0833V18.5416H14.8333V11.1249ZM3.70825 25.9582H22.2499V33.3749H3.70825V25.9582ZM11.1249 70.4582H29.6666V77.8749H11.1249V70.4582ZM50.9153 39.3453C53.7707 40.1982 55.7362 42.2378 56.7374 44.7595L72.572 18.3932C74.9824 14.3882 73.6845 9.27074 69.6795 6.78615C66.4533 4.85782 62.2999 5.26574 59.5557 7.86157L46.8362 19.7653C45.3528 21.1374 44.4999 23.1028 44.4999 25.1424V39.7162C45.8349 39.1599 48.2082 38.4924 50.9153 39.3453ZM39.3453 45.5012C39.9387 43.5728 41.1253 41.9412 42.6458 40.7916H12.1633C7.41659 40.7916 3.70825 44.4999 3.70825 49.2466C3.70825 53.0291 6.19284 56.3295 9.827 57.3678L26.5516 62.1516C28.517 62.7078 30.6308 62.4482 32.4108 61.3728L42.3862 55.4024C40.9475 54.2452 39.8888 52.6833 39.3467 50.9183C38.8047 49.1533 38.8042 47.2664 39.3453 45.5012ZM82.362 69.012L73.907 53.7707C72.8831 52.0115 71.2024 50.731 69.2345 50.2107L57.4791 47.2441C57.4791 48.4307 57.4791 49.6916 57.0712 50.9153C56.502 52.8204 55.3306 54.4898 53.7328 55.6731C52.1349 56.8565 50.1966 57.4901 48.2083 57.4791C45.9462 57.4791 44.4999 56.6632 44.4999 56.6632V77.8749C40.4207 77.8749 37.0833 81.2124 37.0833 85.2916H59.3333C59.3333 81.2124 55.9958 77.8749 51.9166 77.8749V62.0032L69.012 79.0987C72.3124 82.3991 77.6524 82.3991 80.9528 79.0987C83.6228 76.4287 84.2162 72.3124 82.362 69.012ZM46.5766 53.5112C49.5062 54.4012 52.6212 52.7695 53.5112 49.8028C54.4012 46.8732 52.7695 43.7582 49.8028 42.8682C46.8733 41.9782 43.7583 43.6099 42.8683 46.5766C41.9783 49.5062 43.647 52.6212 46.5766 53.5112Z" fill="#414148"/>
</svg>
