<svg width="88" height="86" viewBox="0 0 88 86" fill="none" xmlns="http://www.w3.org/2000/svg">
<path d="M33.6346 25.5986L32.689 17.2549C32.594 16.3163 32.1528 15.4468 31.4513 14.816C30.7499 14.1853 29.8387 13.8384 28.8953 13.8432H18.2079C17.2646 13.8384 16.3533 14.1853 15.6519 14.816C14.9505 15.4468 14.5093 16.3163 14.4143 17.2549L13.2758 25.5986H33.6346ZM34.9251 40.0834L34.2057 31.2835H12.8939L11.6034 46.1131L34.9251 40.0834ZM75.8428 0C72.4497 0 69.3199 1.8245 67.6511 4.77633C66.7961 4.19421 65.7986 3.85622 64.7659 3.79871C63.7331 3.74121 62.7043 3.96638 61.7899 4.44998C60.8756 4.93359 60.1104 5.65734 59.5767 6.54336C59.0431 7.42939 58.761 8.44416 58.761 9.4785C58.761 10.5128 59.0431 11.5276 59.5767 12.4136C60.1104 13.2997 60.8756 14.0234 61.7899 14.507C62.7043 14.9906 63.7331 15.2158 64.7659 15.1583C65.7986 15.1008 66.7961 14.7628 67.6511 14.1807C71.2742 20.5219 80.3967 20.559 84.0716 14.2548C87.7466 7.95067 83.2261 0.0370835 75.9281 0.00370851L75.8428 0ZM39.8164 9.4785C39.8164 10.2255 39.9635 10.9653 40.2494 11.6554C40.5353 12.3456 40.9543 12.9727 41.4825 13.5009C42.0108 14.0292 42.6379 14.4482 43.328 14.7341C44.0182 15.0199 44.7579 15.1671 45.505 15.1671C46.252 15.1671 46.9917 15.0199 47.6819 14.7341C48.3721 14.4482 48.9992 14.0292 49.5274 13.5009C50.0556 12.9727 50.4746 12.3456 50.7605 11.6554C51.0464 10.9653 51.1935 10.2255 51.1935 9.4785C51.1935 7.96979 50.5942 6.52288 49.5274 5.45606C48.4606 4.38925 47.0137 3.78992 45.505 3.78992C43.9963 3.78992 42.5493 4.38925 41.4825 5.45606C40.4157 6.52288 39.8164 7.96979 39.8164 9.4785ZM81.2273 34.1686C80.7163 34.1721 80.2074 34.2343 79.7106 34.354L4.20896 53.9229C3.00467 54.2316 1.93737 54.9324 1.17531 55.9147C0.413244 56.897 -0.000251464 58.1049 1.14731e-07 59.3482V83.3522C1.14731e-07 84.398 0.849208 85.2472 1.89496 85.2472H53.8116C54.0606 85.2477 54.3072 85.199 54.5374 85.1039C54.7675 85.0089 54.9766 84.8693 55.1527 84.6932C55.3287 84.5172 55.4683 84.3081 55.5633 84.0779C55.6584 83.8478 55.7071 83.6012 55.7066 83.3522V66.7389C55.7066 66.4902 55.7556 66.244 55.8509 66.0143C55.9462 65.7846 56.0858 65.5759 56.2618 65.4002C56.4378 65.2246 56.6468 65.0853 56.8767 64.9905C57.1065 64.8957 57.3529 64.8471 57.6015 64.8476H68.5634C69.0626 64.8562 69.5391 65.0581 69.8925 65.4108C70.246 65.7635 70.4488 66.2396 70.4583 66.7389V83.3522C70.4583 84.398 71.3075 85.2472 72.3533 85.2472H85.325C85.574 85.2477 85.8207 85.199 86.0508 85.1039C86.2809 85.0089 86.49 84.8693 86.6661 84.6932C86.8421 84.5172 86.9817 84.3081 87.0768 84.0779C87.1718 83.8478 87.2205 83.6012 87.22 83.3522V40.1946C87.22 36.8794 84.5426 34.1871 81.2273 34.1686ZM20.8557 78.7242H17.0658C16.3114 78.7242 15.5879 78.4245 15.0545 77.8911C14.5211 77.3577 14.2215 76.6343 14.2215 75.8799C14.2215 75.1256 14.5211 74.4021 15.0545 73.8687C15.5879 73.3353 16.3114 73.0356 17.0658 73.0356H20.8557C21.61 73.0356 22.3335 73.3353 22.8669 73.8687C23.4003 74.4021 23.7 75.1256 23.7 75.8799C23.7 76.6343 23.4003 77.3577 22.8669 77.8911C22.3335 78.4245 21.61 78.7242 20.8557 78.7242ZM20.8557 67.347H17.0658C16.3297 67.3204 15.6326 67.0093 15.1212 66.4792C14.6099 65.949 14.3241 65.2412 14.3241 64.5046C14.3241 63.768 14.6099 63.0602 15.1212 62.53C15.6326 61.9999 16.3297 61.6888 17.0658 61.6622H20.8557C21.5918 61.6888 22.2888 61.9999 22.8002 62.53C23.3115 63.0602 23.5973 63.768 23.5973 64.5046C23.5973 65.2412 23.3115 65.949 22.8002 66.4792C22.2888 67.0093 21.5918 67.3204 20.8557 67.347ZM39.8164 78.7242H36.0265C35.2721 78.7242 34.5486 78.4245 34.0152 77.8911C33.4818 77.3577 33.1822 76.6343 33.1822 75.8799C33.1822 75.1256 33.4818 74.4021 34.0152 73.8687C34.5486 73.3353 35.2721 73.0356 36.0265 73.0356H39.8164C40.5707 73.0356 41.2942 73.3353 41.8276 73.8687C42.361 74.4021 42.6607 75.1256 42.6607 75.8799C42.6607 76.6343 42.361 77.3577 41.8276 77.8911C41.2942 78.4245 40.5707 78.7242 39.8164 78.7242ZM39.8164 67.347H36.0265C35.2904 67.3204 34.5933 67.0093 34.0819 66.4792C33.5706 65.949 33.2849 65.2412 33.2849 64.5046C33.2849 63.768 33.5706 63.0602 34.0819 62.53C34.5933 61.9999 35.2904 61.6888 36.0265 61.6622H39.8164C40.5525 61.6888 41.2495 61.9999 41.7609 62.53C42.2722 63.0602 42.558 63.768 42.558 64.5046C42.558 65.2412 42.2722 65.949 41.7609 66.4792C41.2495 67.0093 40.5525 67.3204 39.8164 67.347Z" fill="#414148"/>
</svg>
