<svg width="89" height="89" viewBox="0 0 89 89" fill="none" xmlns="http://www.w3.org/2000/svg">
<path d="M50.0625 23.1191V26.248H77.875V23.1191H50.0625ZM57.1895 29.0293V31.8105H70.748V29.0293H57.1895ZM11.125 34.9395C10.1255 34.9395 9.31614 35.2765 8.50471 35.9864C7.69328 36.6965 6.9267 37.8081 6.29692 39.225C5.03719 42.0595 4.3457 46.0645 4.3457 50.0625C4.3457 54.0605 5.03719 58.0657 6.29692 60.9C6.9267 62.317 7.69328 63.4285 8.50454 64.1384C9.31632 64.8487 10.1255 65.1855 11.125 65.1855H12.0037L12.3514 62.0577L12.5061 60.666H26.4314L26.9335 65.1855H31.8105V34.9395H11.125ZM34.9395 34.9395V42.9355H42.9355V34.9395H34.9395ZM46.0645 34.9395V65.1855H50.9412L51.2889 62.0577L51.4436 60.666H65.3689L65.8709 65.1855H77.875C78.8745 65.1855 79.6839 64.8483 80.4953 64.1386C81.3067 63.4285 82.0736 62.3169 82.7034 60.9C83.9632 58.0659 84.6546 54.0611 84.6546 50.0632C84.6546 46.0651 83.9635 42.0602 82.7038 39.2261C82.074 37.809 81.3072 36.6969 80.4956 35.9868C79.6842 35.2769 78.8745 34.9396 77.875 34.9395H46.0645ZM34.9395 46.0645V54.0605H42.9355V46.0645H34.9395ZM34.9395 57.1895V65.1855H42.9355V57.1895H34.9395ZM15.3068 63.7949L12.8732 85.6973H26.0643L23.6311 63.7949H15.3068ZM54.2443 63.7949L51.8107 85.6973H65.0018L62.5686 63.7949H54.2443ZM31.8105 66.75V85.8711H34.9395V79.4395H42.9355V85.8711H46.0645V66.75H42.9355V76.3105H34.9395V66.75H31.8105ZM71.0957 68.3145V73.5293H76.3105V68.3145H71.0957ZM72.2783 76.6582C73.2941 80.1222 75.132 82.3744 77.2007 83.7092C80.3458 85.7381 83.7852 85.6973 85.1758 85.6973V82.5684C83.7852 82.5684 81.1405 82.5275 78.8969 81.0799C77.5849 80.2333 76.3291 78.9209 75.512 76.6582H72.2783Z" fill="#414148"/>
</svg>
