<svg width="89" height="89" viewBox="0 0 89 89" fill="none" xmlns="http://www.w3.org/2000/svg">
<path d="M73.9701 11.125C74.5597 11.125 75.0659 11.6256 75.0659 12.2709H75.0937V25.0312H83.4374V41.7188H38.9374L40.5033 36.1562H58.281C59.8608 36.1284 61.1874 36.1062 61.1874 33.375C61.1874 30.5938 59.8107 30.5938 58.1948 30.5938H42.0691L43.2901 26.255C43.3822 25.9046 43.5877 25.5946 43.8744 25.3732C44.1612 25.1519 44.5131 25.0316 44.8754 25.0312H55.6249L61.1874 16.6875L63.0314 13.4724C63.4308 12.7647 64.0099 12.1751 64.7102 11.7629C65.4105 11.3507 66.2072 11.1307 67.0197 11.125H73.9701ZM70.449 36.1284C71.4781 36.1284 72.2846 35.2941 72.2846 34.2928V32.4294C72.2846 31.4003 71.4503 30.5938 70.449 30.5938H68.5856C67.5565 30.5938 66.7499 31.4281 66.7499 32.4294V34.2928C66.7499 35.3219 67.5565 36.1284 68.5856 36.1284H70.449ZM8.38541 44.5C6.51085 44.5 5.16472 46.2856 5.66813 48.0711L11.1249 66.75L14.7183 77.2715C14.8963 77.2845 15.0892 77.2909 15.2968 77.2909C16.896 77.2909 17.5552 76.8682 18.6148 76.1896L18.6371 76.1757C19.9999 75.3023 21.766 74.1759 25.0034 74.1759C28.2408 74.1759 30.0096 75.3023 31.3724 76.1729L31.3891 76.184C32.4516 76.8654 33.1191 77.2909 34.7378 77.2909C36.3564 77.2909 37.0239 76.8654 38.0864 76.184L38.1058 76.1729C39.4687 75.3023 41.2348 74.1759 44.4721 74.1759C47.7095 74.1759 49.4784 75.3023 50.8412 76.1729L50.8579 76.184C51.9203 76.8654 52.5878 77.2909 54.2065 77.2909C55.8252 77.2909 56.4927 76.8654 57.5551 76.184L57.5746 76.1729C58.9374 75.3023 60.7035 74.1759 63.9409 74.1759C67.1866 74.1759 68.961 75.2968 70.3294 76.1701L70.3517 76.184C71.4169 76.8654 72.0844 77.2909 73.7031 77.2909C75.344 77.2909 76.0171 76.8598 77.0795 76.1812L77.099 76.1701C78.4562 75.3051 80.2195 74.1815 83.4374 74.1759V44.5H8.38541ZM40.7842 58.4062C40.2957 58.4019 39.8285 58.2059 39.4832 57.8605C39.1378 57.5151 38.9418 57.0479 38.9374 56.5595V54.6905C38.9374 53.6837 39.7523 52.8438 40.7842 52.8438H42.6532C43.66 52.8438 44.4999 53.6587 44.4999 54.6905V56.5595C44.4999 57.0493 44.3054 57.519 43.959 57.8653C43.6127 58.2117 43.143 58.4062 42.6532 58.4062H40.7842ZM53.7782 58.4062H51.9092C51.4194 58.4062 50.9497 58.2117 50.6033 57.8653C50.257 57.519 50.0624 57.0493 50.0624 56.5595V54.6905C50.0624 53.6837 50.8773 52.8438 51.9092 52.8438H53.7782C54.785 52.8438 55.6249 53.6587 55.6249 54.6905V56.5595C55.6249 56.802 55.5772 57.0422 55.4844 57.2662C55.3916 57.4903 55.2555 57.6939 55.084 57.8653C54.9126 58.0368 54.709 58.1729 54.4849 58.2657C54.2609 58.3585 54.0207 58.4062 53.7782 58.4062ZM63.0342 58.4062C62.7917 58.4062 62.5515 58.3585 62.3275 58.2657C62.1034 58.1729 61.8998 58.0368 61.7283 57.8653C61.5569 57.6939 61.4208 57.4903 61.328 57.2662C61.2352 57.0422 61.1874 56.802 61.1874 56.5595V54.6905C61.1874 53.6837 62.0023 52.8438 63.0342 52.8438H64.9032C65.91 52.8438 66.7499 53.6587 66.7499 54.6905V56.5595C66.7499 57.0493 66.5554 57.519 66.209 57.8653C65.8627 58.2117 65.393 58.4062 64.9032 58.4062H63.0342ZM76.0282 58.4062H74.1592C73.6694 58.4062 73.1997 58.2117 72.8533 57.8653C72.507 57.519 72.3124 57.0493 72.3124 56.5595V54.6905C72.3124 53.6837 73.1273 52.8438 74.1592 52.8438H76.0282C77.035 52.8438 77.8749 53.6587 77.8749 54.6905V56.5595C77.8749 57.0493 77.6804 57.519 77.334 57.8653C76.9877 58.2117 76.518 58.4062 76.0282 58.4062Z" fill="#414148"/>
<path d="M78.5981 78.512C79.8191 77.7332 81.0345 76.9573 83.4653 76.9573L83.4375 83.4098H5.5625V76.9573C7.99609 76.9573 9.21428 77.736 10.4297 78.5148C11.6451 79.2935 12.8633 80.0723 15.2969 80.0723C17.7138 80.0723 18.9236 79.2935 20.1363 78.5176C21.3489 77.7388 22.5671 76.9573 25.0034 76.9573C27.437 76.9573 28.6552 77.736 29.8706 78.5148C31.086 79.2935 32.3042 80.0723 34.7378 80.0723C37.1714 80.0723 38.3896 79.2935 39.605 78.5148C40.8204 77.736 42.0386 76.9573 44.4722 76.9573C46.9058 76.9573 48.1212 77.736 49.3394 78.5148C50.5576 79.2935 51.773 80.0723 54.2066 80.0723C56.6402 80.0723 57.8583 79.2935 59.0738 78.5148C60.2892 77.736 61.5073 76.9573 63.9409 76.9573C66.3912 76.9573 67.615 77.736 68.8359 78.5176C70.0569 79.2963 71.2723 80.0723 73.7031 80.0723C76.1534 80.0723 77.3772 79.2935 78.5981 78.512Z" fill="#414148"/>
</svg>
