<svg width="89" height="89" viewBox="0 0 89 89" fill="none" xmlns="http://www.w3.org/2000/svg">
<g clip-path="url(#clip0_17_1031)">
<path d="M4.4945 0L0 4.4945L7.91758 18.1868L13.0522 17.4337L44.3939 48.7788L41.7205 51.3462C40.3512 52.7154 40.3512 54.7898 41.7205 56.159L43.1102 57.5522C44.4795 58.9214 46.5744 58.9214 47.6013 57.5522L51.6679 61.6154C51.3256 63.6692 51.6679 66.1099 53.3795 67.8214L71.8846 86.2205C75.65 89.9858 81.8115 89.9858 85.5769 86.2205C90.0269 82.1128 89.9858 75.9718 86.2205 72.2064L67.8214 53.6978C66.1099 51.9863 63.6692 51.3017 61.6154 51.9863L57.1209 47.9231C58.1478 46.5538 58.1478 44.4589 57.1209 43.4286L55.8372 42.1483C55.5261 41.8238 55.1525 41.5656 54.7389 41.3892C54.3254 41.2128 53.8804 41.1219 53.4308 41.1219C52.9812 41.1219 52.5363 41.2128 52.1227 41.3892C51.7092 41.5656 51.3356 41.8238 51.0244 42.1483L48.7788 44.3939L17.4372 13.0522L18.1834 7.91758L4.4945 0ZM71.2445 0.106115C64.4908 -0.455269 55.536 4.02212 51.3462 7.91415C46.191 13.0693 47.0331 19.8093 51.1305 26.3166L43.8599 33.5907L48.9945 39.3654C51.733 36.9692 55.7722 36.9692 58.5107 39.3654L59.9038 40.7552L60.2256 41.0769L63.2208 38.0817C69.4097 41.7205 75.852 42.2442 80.7641 37.3321C85.5564 32.8821 90.7526 21.9077 88.3565 15.4038L78.7308 25.3513C77.3615 26.7205 75.2872 26.7205 73.9179 25.3513L63.967 15.4038C63.6425 15.0927 63.3843 14.7191 63.2079 14.3055C63.0315 13.892 62.9406 13.447 62.9406 12.9974C62.9406 12.5478 63.0315 12.1029 63.2079 11.6893C63.3843 11.2758 63.6425 10.9022 63.967 10.591L73.9213 0.643538C73.0656 0.342308 72.2098 0.188269 71.2445 0.106115ZM33.5907 42.7885L21.1786 55.1971C19.8446 54.902 18.4816 54.7584 17.1154 54.7692C7.53077 54.7692 0 62.3 0 71.8846C0 81.4692 7.53077 89 17.1154 89C26.7 89 34.2308 81.4692 34.2308 71.8846C34.2308 70.1286 33.9535 68.441 33.4811 66.8561L40.7552 59.5821L39.6872 58.1923C36.9487 55.4538 36.9692 51.3051 39.3654 48.5632L33.5907 42.7885ZM60.1195 58.408C60.5474 58.408 60.9513 58.4901 61.2936 58.8358L81.5137 79.0525C82.1983 79.7372 82.1983 80.8257 81.5137 81.5103C80.8291 82.1949 79.7337 82.1949 79.0491 81.5103L58.8358 61.2936C58.1512 60.609 58.1512 59.5205 58.8358 58.8358C59.1782 58.4935 59.6916 58.408 60.1195 58.408ZM19.4705 63.0017L25.9948 69.5295L23.6398 78.4056L14.7637 80.7607L8.23592 74.2328L10.591 65.3568L19.4705 63.0017Z" fill="#414148"/>
</g>
<defs>
<clipPath id="clip0_17_1031">
<rect width="89" height="89" fill="white"/>
</clipPath>
</defs>
</svg>
