<svg width="89" height="89" viewBox="0 0 89 89" fill="none" xmlns="http://www.w3.org/2000/svg">
<path d="M71.0145 29.6666C70.3674 28.5456 69.4382 27.6136 68.3192 26.963C67.2002 26.3125 65.9305 25.9661 64.6362 25.9583H55.625V18.5416C55.625 17.5581 55.2343 16.6148 54.5388 15.9194C53.8434 15.224 52.9001 14.8333 51.9166 14.8333H14.8333C12.8663 14.8333 10.9798 15.6146 9.58892 17.0055C8.19802 18.3964 7.41663 20.2829 7.41663 22.2499V59.3333C7.41796 60.6339 7.76129 61.9112 8.41217 63.0373C9.06305 64.1633 9.9986 65.0984 11.125 65.7487C10.9922 69.191 12.2323 72.545 14.5725 75.0729C16.9127 77.6009 20.1612 79.0957 23.6035 79.2285C27.0458 79.3612 30.3998 78.1211 32.9278 75.7809C35.4557 73.4408 36.9505 70.1922 37.0833 66.7499H48.5791C48.9892 69.8527 50.5129 72.7007 52.8664 74.7637C55.22 76.8267 58.2431 77.9641 61.3729 77.9641C64.5026 77.9641 67.5257 76.8267 69.8793 74.7637C72.2329 72.7007 73.7566 69.8527 74.1666 66.7499C76.1336 66.7499 78.0201 65.9685 79.411 64.5776C80.8019 63.1867 81.5833 61.3003 81.5833 59.3333V48.2083C81.5727 47.5324 81.3943 46.8698 81.0641 46.2799L71.0145 29.6666ZM55.625 33.3749H64.6362L71.3112 44.4999H55.625V33.3749ZM24.1041 70.4583C23.004 70.4583 21.9285 70.132 21.0138 69.5208C20.099 68.9096 19.3861 68.0408 18.965 67.0244C18.544 66.008 18.4339 64.8896 18.6485 63.8106C18.8631 62.7315 19.3929 61.7404 20.1708 60.9625C20.9488 60.1845 21.9399 59.6548 23.0189 59.4401C24.098 59.2255 25.2164 59.3357 26.2328 59.7567C27.2492 60.1777 28.118 60.8906 28.7292 61.8054C29.3404 62.7201 29.6666 63.7956 29.6666 64.8958C29.6666 66.371 29.0806 67.7859 28.0374 68.829C26.9942 69.8722 25.5794 70.4583 24.1041 70.4583ZM61.1875 70.4583C60.0873 70.4583 59.0118 70.132 58.0971 69.5208C57.1824 68.9096 56.4694 68.0408 56.0484 67.0244C55.6274 66.008 55.5172 64.8896 55.7318 63.8106C55.9465 62.7315 56.4762 61.7404 57.2542 60.9625C58.0321 60.1845 59.0233 59.6548 60.1023 59.4401C61.1813 59.2255 62.2997 59.3357 63.3161 59.7567C64.3325 60.1777 65.2013 60.8906 65.8125 61.8054C66.4237 62.7201 66.75 63.7956 66.75 64.8958C66.75 66.371 66.1639 67.7859 65.1207 68.829C64.0776 69.8722 62.6627 70.4583 61.1875 70.4583Z" fill="#414148"/>
</svg>
